<svg width="24" height="26" viewBox="0 0 24 26" fill="none" xmlns="http://www.w3.org/2000/svg">
<path d="M10.9792 9.10409C11.6926 9.10409 12.2708 8.52578 12.2708 7.81242C12.2708 7.09906 11.6926 6.52075 10.9792 6.52075C10.2658 6.52075 9.6875 7.09906 9.6875 7.81242C9.6875 8.52578 10.2658 9.10409 10.9792 9.10409ZM10.9792 14.2708C11.6926 14.2708 12.2708 13.6925 12.2708 12.9791C12.2708 12.2657 11.6926 11.6874 10.9792 11.6874C10.2658 11.6874 9.6875 12.2657 9.6875 12.9791C9.6875 13.6925 10.2658 14.2708 10.9792 14.2708ZM10.9792 19.4374C11.6926 19.4374 12.2708 18.8591 12.2708 18.1458C12.2708 17.4324 11.6926 16.8541 10.9792 16.8541C10.2658 16.8541 9.6875 17.4324 9.6875 18.1458C9.6875 18.8591 10.2658 19.4374 10.9792 19.4374Z" fill="black"/>
<path d="M10.9793 1.35413C16.6863 1.35413 21.3127 6.55882 21.3127 12.9791C21.3127 13.867 21.2242 14.7317 21.0567 15.5625L22.6043 24.6041L16.9932 22.4336C15.2992 23.7998 13.2227 24.6041 10.9793 24.6041C5.27239 24.6041 0.645997 19.3995 0.645997 12.9791C0.645996 6.55882 5.27238 1.35413 10.9793 1.35413Z" stroke="black" stroke-linecap="round" stroke-linejoin="round"/>
</svg>
